<?xml version="1.0" standalone="no"?>
<!DOCTYPE svg PUBLIC "-//W3C//DTD SVG 20010904//EN"
 "http://www.w3.org/TR/2001/REC-SVG-20010904/DTD/svg10.dtd">
<svg version="1.0" xmlns="http://www.w3.org/2000/svg"
 width="563.000000pt" height="617.000000pt" viewBox="0 0 563.000000 617.000000"
 preserveAspectRatio="xMidYMid meet">

<g transform="translate(0.000000,617.000000) scale(0.100000,-0.100000)"
fill="#000000" stroke="none">
<path d="M4879 5902 c-30 -25 -30 -85 0 -115 19 -19 33 -21 155 -22 167 -2
198 7 210 58 8 31 6 42 -11 65 l-20 27 -155 3 c-140 2 -157 1 -179 -16z m241
-54 c0 -6 -3 -8 -7 -5 -3 4 -17 0 -31 -9 -18 -12 -26 -13 -32 -5 -4 7 -11 11
-16 10 -18 -3 -25 1 -19 11 9 14 105 13 105 -2z"/>
<path d="M3500 5145 c0 -13 -34 -15 -259 -15 l-259 0 -6 -22 c-8 -28 -8 -166
0 -305 l7 -102 229 0 c192 0 230 2 234 14 4 8 12 15 20 15 10 0 14 13 15 43 1
85 18 4 18 -93 1 -52 4 -112 7 -133 l7 -38 222 1 c180 1 227 4 244 16 11 8 21
12 21 7 0 -4 5 -1 10 7 4 9 10 150 11 315 l2 300 -261 3 c-229 2 -262 0 -262
-13z m490 -305 l0 -290 -220 0 -220 0 0 108 c0 60 -3 191 -7 290 l-6 182 226
0 227 0 0 -290z m-532 83 l-3 -178 -217 -3 -218 -2 0 180 0 180 220 0 220 0
-2 -177z"/>
<path d="M3735 4935 c-22 -8 -41 -15 -42 -15 -2 0 -3 -12 -4 -27 0 -28 0 -28
-10 -4 -7 19 -12 21 -23 12 -12 -10 -15 -8 -19 11 -2 13 -5 -34 -6 -104 l-1
-126 48 -7 c26 -3 91 -5 144 -3 l98 3 0 103 c0 79 -3 102 -14 102 -7 0 -25 9
-38 20 -14 10 -28 16 -32 13 -3 -3 -6 1 -6 9 0 30 -35 34 -95 13z"/>
<path d="M5003 4793 c4 -3 40 -7 80 -8 39 -1 83 -5 97 -10 23 -8 24 -7 11 8
-11 14 -31 17 -104 17 -50 0 -87 -3 -84 -7z"/>
<path d="M5090 4743 c0 -6 5 -15 10 -18 6 -3 10 -17 10 -31 0 -13 5 -24 10
-24 6 0 10 -6 10 -14 0 -8 5 -18 10 -21 6 -4 10 6 10 22 0 28 -59 112 -60 86z"/>
<path d="M5183 4675 c0 -33 2 -45 4 -27 2 18 2 45 0 60 -2 15 -4 0 -4 -33z"/>
<path d="M3138 4663 c-2 -10 -1 -74 2 -143 l5 -125 145 -3 c200 -4 190 -12
190 155 l0 133 -169 0 c-152 0 -169 -2 -173 -17z m320 -128 l3 -120 -148 2
-148 2 1 38 c1 21 2 75 3 121 l1 83 143 -3 142 -3 3 -120z"/>
<path d="M3240 4540 l0 -80 80 0 80 0 0 80 0 80 -80 0 -80 0 0 -80z m84 49
c14 -11 26 -29 26 -40 0 -10 5 -19 10 -19 6 0 10 -12 10 -26 0 -26 -1 -26 -47
-19 -27 4 -51 9 -55 11 -13 8 -19 61 -9 87 13 32 29 34 65 6z"/>
<path d="M4910 4630 c-55 -5 -55 -5 30 -12 68 -6 87 -5 99 7 16 16 -1 17 -129
5z"/>
<path d="M407 4040 c-39 -31 -51 -85 -29 -130 28 -57 42 -60 299 -60 l231 0
30 25 c36 30 47 75 28 119 -27 64 -35 66 -297 66 -223 0 -238 -1 -262 -20z
m177 -68 c3 -5 18 -7 34 -6 25 1 29 -1 25 -17 -3 -10 -9 -19 -14 -19 -5 0 -6
7 -3 15 4 8 1 15 -5 15 -6 0 -11 -4 -11 -8 0 -4 -16 -8 -35 -9 -28 -1 -35 3
-35 18 0 19 34 28 44 11z m189 -1 c16 -1 27 -7 27 -15 0 -15 -16 -16 -37 -3
-8 5 -13 4 -13 -2 0 -6 -5 -11 -11 -11 -5 0 -7 5 -3 12 4 7 3 8 -5 4 -7 -5
-23 -9 -37 -11 -17 -2 -24 3 -24 15 0 15 7 17 38 15 20 -2 49 -4 65 -4z"/>
<path d="M3940 4021 c0 -6 4 -13 10 -16 6 -3 7 1 4 9 -7 18 -14 21 -14 7z"/>
<path d="M4362 3997 c-12 -13 -22 -32 -22 -42 0 -10 -12 -33 -26 -52 -37 -48
-78 -44 -116 12 -35 50 -35 37 -2 -46 69 -171 172 -346 242 -412 l29 -28 -19
57 c-22 66 -38 132 -45 190 l-5 42 44 8 43 8 -45 6 -45 5 0 132 c0 72 -3 134
-6 137 -3 3 -15 -4 -27 -17z"/>
<path d="M3267 3992 c-10 -10 -15 -25 -12 -33 4 -10 -4 -14 -27 -15 -18 -1
-53 -7 -78 -13 -61 -14 -260 -3 -267 15 -7 19 -30 17 -41 -2 -9 -16 -26 -16
-107 -2 -16 2 -20 -2 -18 -22 3 -25 2 -25 -13 -5 -16 19 -16 19 -12 -7 3 -16
1 -28 -3 -28 -5 0 -9 7 -9 15 0 8 -5 15 -11 15 -6 0 -8 -9 -4 -20 4 -11 2 -20
-4 -20 -6 0 -11 6 -11 13 0 8 -7 14 -15 14 -8 0 -15 -6 -15 -14 0 -7 -11 -13
-25 -13 -14 0 -25 5 -25 10 0 6 7 10 15 10 8 0 15 4 15 9 0 20 -18 20 -39 0
-23 -22 -92 -49 -124 -49 -16 0 -18 -3 -9 -12 9 -9 18 -9 37 0 32 15 55 15 55
2 0 -5 -7 -10 -15 -10 -8 0 -15 -4 -15 -9 0 -14 31 -19 57 -10 27 10 37 -11
14 -28 -13 -10 -10 -12 24 -13 32 0 37 -3 23 -11 -10 -5 -24 -9 -30 -8 -26 3
-73 -3 -60 -8 10 -4 10 -8 0 -21 -12 -14 -9 -15 27 -9 28 4 35 3 25 -3 -13 -9
-13 -11 0 -20 8 -5 20 -11 25 -13 6 -3 7 -8 3 -12 -4 -4 -14 -3 -21 3 -10 9
-17 8 -25 0 -20 -20 -14 -28 20 -28 23 0 29 -3 21 -11 -6 -6 -24 -8 -41 -4
-23 5 -29 10 -25 23 6 14 5 15 -9 2 -20 -19 -8 -53 21 -60 26 -6 24 -26 -1
-22 -10 2 -18 -2 -18 -7 0 -6 -10 -11 -22 -12 -22 -1 -22 -1 2 -8 21 -6 22 -8
7 -14 -9 -3 -16 -10 -16 -14 4 -17 -14 -43 -28 -43 -12 0 -13 3 -4 13 6 8 8
17 5 20 -4 4 -6 31 -5 61 0 31 -6 66 -14 82 -8 16 -15 36 -15 44 0 8 -14 62
-32 119 -27 86 -37 105 -58 113 -32 12 -86 2 -94 -18 -3 -8 -11 -12 -17 -9 -5
4 -8 9 -5 13 13 12 -48 31 -95 29 -49 -2 -49 -2 -43 -31 9 -40 45 -100 53 -87
4 6 7 -4 7 -22 0 -17 4 -45 8 -60 5 -23 3 -30 -11 -33 -39 -11 -81 -169 -63
-234 4 -14 5 -31 2 -39 -3 -9 0 -11 9 -6 9 6 8 2 -2 -11 -9 -10 -15 -29 -13
-41 2 -13 -1 -23 -6 -23 -6 0 -10 5 -10 10 0 14 -28 12 -33 -2 -3 -10 -7 -10
-19 -1 -11 10 -17 10 -26 1 -9 -9 -12 -9 -12 3 0 7 -7 1 -15 -15 -17 -32 -19
-126 -8 -324 6 -118 7 -122 28 -122 26 0 35 17 35 63 0 18 4 37 8 43 12 19 51
26 98 19 l44 -6 0 -48 0 -49 43 -6 c32 -4 1661 -11 1700 -7 5 1 1 11 -7 23 -9
12 -16 32 -16 44 0 12 -7 27 -15 34 -20 17 -20 60 0 60 18 0 38 -45 30 -70 -6
-20 3 -50 15 -50 5 0 7 16 4 36 -2 19 0 43 6 52 6 11 10 12 10 4 0 -7 5 -10
10 -7 6 3 10 -2 11 -12 0 -15 2 -14 12 5 8 18 8 28 -1 43 -7 10 -12 24 -12 30
0 5 -12 36 -26 67 -47 102 -54 131 -45 172 10 45 6 53 -20 39 -11 -5 -19 -6
-20 -2 -2 20 -18 -36 -18 -64 -1 -18 -6 -33 -12 -33 -6 0 -8 -8 -5 -17 3 -10
7 -36 10 -58 5 -32 2 -28 -12 20 -16 50 -20 56 -26 38 -4 -12 -2 -31 4 -43 8
-16 8 -20 -2 -18 -7 2 -14 -7 -16 -19 -3 -20 -9 -23 -47 -23 -55 0 -92 -14
-98 -37 -4 -17 -5 -17 -6 0 -1 22 -41 23 -41 1 0 -14 -8 -16 -45 -12 -27 3
-45 1 -45 -4 0 -6 -7 -5 -15 2 -9 7 -18 10 -22 7 -3 -4 -14 -2 -24 4 -17 9
-19 6 -17 -23 2 -24 -1 -33 -12 -33 -10 0 -14 8 -13 23 2 13 -3 22 -11 22 -7
0 -16 9 -19 21 -5 17 -11 20 -35 15 -30 -7 -60 13 -48 33 4 5 2 12 -4 16 -5 3
-15 -6 -20 -21 -10 -25 -13 -26 -61 -21 -36 5 -60 2 -80 -8 -25 -13 -27 -18
-19 -41 13 -34 13 -34 -10 -34 -13 0 -17 5 -14 14 8 21 -31 38 -84 36 -66 -2
-74 -1 -67 9 7 12 -14 18 -96 26 -53 5 -68 3 -78 -9 -17 -20 -45 -20 -61 -1
-14 17 -66 20 -75 5 -9 -15 -74 -1 -107 21 -14 11 -35 19 -46 19 -12 0 -24 5
-27 10 -9 15 -52 12 -69 -6 -14 -14 -19 -14 -46 2 -23 14 -32 16 -42 6 -14
-14 -32 -16 -23 -2 3 6 -3 10 -14 10 -13 0 -18 -5 -15 -13 3 -8 -2 -20 -11
-27 -8 -7 -15 -19 -15 -26 0 -8 -4 -14 -10 -14 -5 0 -10 -6 -10 -14 0 -7 -6
-19 -14 -25 -11 -10 -15 9 -21 113 -5 85 -3 136 4 159 23 70 88 78 680 82 267
2 540 9 606 14 66 6 159 11 206 11 47 0 88 2 91 5 19 19 -53 252 -74 239 -6
-4 -6 -10 1 -17 6 -6 11 -16 11 -21 0 -6 -5 -4 -10 4 -9 13 -11 13 -20 0 -9
-13 -10 -13 -10 0 0 10 -12 16 -37 18 -21 1 -59 14 -85 27 -26 14 -50 25 -53
25 -3 0 -9 0 -14 0 -5 0 -11 9 -14 20 -3 12 -14 20 -25 20 -12 0 -28 10 -37
23 l-17 22 7 -23 c5 -18 2 -28 -14 -38 -12 -9 -21 -20 -21 -26 0 -7 6 -6 15 2
23 19 20 -25 -6 -66 -22 -36 -20 -41 11 -22 28 18 37 1 17 -33 -9 -17 -17 -36
-16 -42 0 -7 4 -3 9 8 8 20 9 19 9 -1 1 -25 -23 -49 -39 -39 -6 4 -27 -1 -46
-10 -25 -12 -39 -13 -48 -6 -23 19 -77 4 -115 -33 -41 -40 -91 -63 -92 -43 -2
50 -9 84 -50 266 -6 24 -17 57 -25 73 -9 17 -13 32 -11 34 8 8 57 -8 52 -16
-3 -4 5 -10 18 -14 35 -9 40 -7 27 9 -8 10 -9 15 -2 15 6 0 16 -8 22 -17 8
-13 13 -14 16 -5 3 6 15 12 27 11 12 0 16 -3 10 -6 -22 -8 -14 -23 12 -23 14
0 28 7 31 15 4 10 18 15 43 14 23 -1 28 -3 14 -6 -13 -2 -23 -11 -23 -20 0
-12 7 -14 31 -9 17 3 40 6 50 6 11 0 27 9 36 20 10 11 23 20 30 20 8 0 13 12
12 33 -1 39 -16 136 -18 122 -1 -5 -6 -2 -10 8 -6 18 -7 17 -24 -1z m-1127
-119 c0 -20 -3 -33 -6 -30 -11 10 -13 67 -3 67 5 0 9 -16 9 -37z m450 -33 c0
-5 -11 -10 -25 -10 -14 0 -25 5 -25 10 0 6 11 10 25 10 14 0 25 -4 25 -10z
m70 6 c0 -9 -30 -14 -35 -6 -4 6 3 10 14 10 12 0 21 -2 21 -4z m607 -32 c-3
-3 -12 -4 -19 -1 -8 3 -5 6 6 6 11 1 17 -2 13 -5z m-627 -11 c0 -5 -11 -9 -25
-9 -14 -1 -25 2 -25 7 0 5 11 9 25 9 14 0 25 -3 25 -7z m-3 -129 c-3 -3 -12
-4 -19 -1 -8 3 -5 6 6 6 11 1 17 -2 13 -5z m-577 -348 c0 -11 -19 -15 -25 -6
-3 5 1 10 9 10 9 0 16 -2 16 -4z m-103 -28 c-3 -8 -6 -5 -6 6 -1 11 2 17 5 13
3 -3 4 -12 1 -19z m1890 -180 c10 -11 11 -18 4 -23 -11 -6 -32 35 -30 58 0 7
3 5 6 -3 3 -8 12 -22 20 -32z m-536 -41 c-8 -8 -11 -7 -11 4 0 20 13 34 18 19
3 -7 -1 -17 -7 -23z m449 23 c0 -5 -2 -10 -4 -10 -3 0 -8 5 -11 10 -3 6 -1 10
4 10 6 0 11 -4 11 -10z m30 -66 c0 -14 -61 -15 -587 -13 -324 1 -593 6 -598
10 -6 4 -26 9 -45 12 -19 2 250 4 598 5 566 1 632 0 632 -14z"/>
<path d="M3950 3985 c1 -6 7 -21 16 -35 l15 -25 -7 25 c-7 26 -24 52 -24 35z"/>
<path d="M2370 3950 c0 -5 4 -10 9 -10 6 0 13 5 16 10 3 6 -1 10 -9 10 -9 0
-16 -4 -16 -10z"/>
<path d="M2430 3930 c0 -5 5 -10 10 -10 6 0 10 5 10 10 0 6 -4 10 -10 10 -5 0
-10 -4 -10 -10z"/>
<path d="M3756 3915 c4 -8 8 -15 10 -15 2 0 4 7 4 15 0 8 -4 15 -10 15 -5 0
-7 -7 -4 -15z"/>
<path d="M2448 3903 c-14 -2 -32 -11 -39 -19 -11 -14 -8 -15 26 -8 21 4 48 7
58 8 11 1 22 7 25 14 4 12 -14 13 -70 5z"/>
<path d="M5187 3823 c-11 -10 -8 -133 3 -133 6 0 10 30 10 70 0 70 -1 76 -13
63z"/>
<path d="M2475 3770 c-3 -5 3 -10 14 -10 12 0 21 5 21 10 0 6 -6 10 -14 10 -8
0 -18 -4 -21 -10z"/>
<path d="M2490 3690 c0 -5 15 -10 33 -9 27 0 29 2 12 9 -28 12 -45 12 -45 0z"/>
<path d="M4510 3641 c0 -12 6 -20 13 -18 15 3 12 -69 -4 -89 -8 -9 -8 -14 -1
-14 6 0 11 -10 11 -22 0 -13 1 -33 1 -45 0 -13 5 -23 10 -23 6 0 10 -4 10 -10
0 -5 -6 -10 -14 -10 -9 0 -12 -7 -9 -20 3 -11 10 -20 16 -20 6 0 7 -3 4 -7 -4
-3 -16 2 -27 12 -19 18 -20 17 -20 -6 0 -52 28 -129 72 -200 26 -41 49 -86 53
-100 5 -19 12 -25 24 -22 16 4 19 22 25 146 14 307 16 467 6 467 -5 0 -10 -5
-10 -11 0 -19 -31 -42 -61 -44 -17 -2 -28 -1 -25 2 7 7 -29 40 -53 48 -17 5
-21 2 -21 -14z m110 -61 c0 -5 -2 -10 -4 -10 -3 0 -8 5 -11 10 -3 6 -1 10 4
10 6 0 11 -4 11 -10z m5 -206 c2 -27 4 -57 4 -67 2 -33 21 -7 21 28 0 19 3 36
8 38 6 5 8 -97 3 -198 -2 -40 -2 -40 -16 -15 -9 18 -10 27 -2 32 8 5 6 13 -6
26 -10 11 -15 26 -11 36 4 9 1 16 -6 16 -7 0 -10 7 -6 16 4 10 -1 18 -14 21
-18 5 -18 6 -2 31 12 18 13 27 5 29 -7 3 -10 11 -7 19 12 41 15 46 20 42 2 -3
6 -27 9 -54z m-41 -33 c-8 -10 -24 14 -24 37 l1 27 13 -30 c7 -16 12 -32 10
-34z"/>
<path d="M5181 3334 c-1 -204 -4 -283 -13 -292 -8 -8 -46 -12 -105 -12 -55 0
-93 -4 -93 -10 0 -6 -30 -10 -71 -10 -67 0 -70 -1 -67 -22 2 -14 13 -25 28
-29 36 -10 278 -11 284 0 13 21 -22 42 -84 50 l-65 8 86 2 c56 1 90 5 97 14
12 15 23 534 11 562 -4 11 -8 -106 -8 -261z m-126 -364 c3 -6 -4 -10 -17 -10
-18 0 -20 2 -8 10 19 12 18 12 25 0z"/>
<path d="M2480 3580 c20 -13 33 -13 25 0 -3 6 -14 10 -23 10 -15 0 -15 -2 -2
-10z"/>
<path d="M4200 3571 c0 -10 27 -41 36 -41 7 0 -15 38 -26 45 -6 3 -10 2 -10
-4z"/>
<path d="M2026 3441 c-4 -5 -2 -12 3 -15 5 -4 12 -2 15 3 4 5 2 12 -3 15 -5 4
-12 2 -15 -3z"/>
<path d="M4284 3422 c-5 -17 -12 -22 -25 -19 -11 3 -19 0 -20 -6 0 -7 -4 -2
-9 11 -12 28 -34 30 -27 2 3 -11 1 -17 -4 -14 -5 3 -12 -2 -15 -11 -5 -11 -10
-13 -19 -5 -9 8 -15 7 -18 -2 -4 -10 -8 -10 -16 2 -6 8 -11 10 -11 4 0 -7 -8
-14 -17 -18 -10 -3 -24 -9 -30 -12 -7 -3 -13 1 -13 9 0 10 -8 13 -25 9 -14 -2
-25 -8 -25 -13 0 -5 -6 -6 -14 -3 -7 3 -16 -2 -20 -11 -7 -18 5 -44 39 -91 31
-41 73 -113 86 -146 6 -16 15 -28 19 -28 5 0 41 -33 82 -73 46 -46 95 -83 133
-102 33 -16 62 -28 65 -28 3 1 7 -8 7 -20 1 -12 11 -30 23 -39 19 -15 19 -17
3 -22 -10 -3 2 -2 27 1 25 3 52 11 61 19 18 16 39 18 39 5 0 -5 -6 -12 -12
-14 -8 -3 -6 -6 4 -6 10 -1 32 8 50 20 18 12 25 18 14 15 -12 -4 -23 0 -31 11
-11 15 -16 16 -41 4 -39 -19 -66 -21 -81 -5 -15 15 -17 28 -3 19 6 -3 10 -1
10 4 0 6 8 11 17 11 14 0 13 3 -5 23 -43 46 -100 205 -151 420 -12 49 -25 96
-31 105 -8 15 -10 14 -16 -6z m-184 -102 c0 -5 -4 -10 -10 -10 -5 0 -10 5 -10
10 0 6 5 10 10 10 6 0 10 -4 10 -10z m20 -50 c0 -5 -5 -10 -11 -10 -5 0 -7 5
-4 10 3 6 8 10 11 10 2 0 4 -4 4 -10z"/>
<path d="M3910 3323 c0 -37 33 -79 38 -49 2 9 -6 31 -17 49 l-21 32 0 -32z"/>
<path d="M4470 3345 c0 -5 5 -17 10 -25 5 -8 10 -10 10 -5 0 6 -5 17 -10 25
-5 8 -10 11 -10 5z"/>
<path d="M4358 3284 c5 -11 15 -44 23 -74 7 -30 15 -47 17 -37 4 21 -26 114
-40 123 -7 4 -7 0 0 -12z"/>
<path d="M4500 3257 c0 -3 12 -39 27 -79 15 -40 39 -120 53 -177 15 -58 32
-107 39 -109 9 -3 7 6 -4 28 -9 17 -14 34 -12 37 3 2 -3 29 -14 60 -10 30 -18
58 -17 61 1 4 -13 45 -31 92 -31 80 -41 101 -41 87z"/>
<path d="M3967 3216 c-4 -10 -1 -13 8 -9 8 3 12 9 9 14 -7 12 -11 11 -17 -5z"/>
<path d="M3516 3143 c-6 -14 -5 -15 5 -6 7 7 10 15 7 18 -3 3 -9 -2 -12 -12z"/>
<path d="M4250 2901 c0 -16 31 -31 73 -34 9 -1 17 -4 17 -7 0 -3 9 -6 20 -7
11 -1 20 2 20 6 0 16 -25 28 -59 29 -18 0 -39 6 -44 11 -14 14 -27 14 -27 2z"/>
<path d="M4200 2882 c0 -4 6 -14 13 -21 10 -10 7 -10 -14 -3 -34 13 -101 18
-117 8 -7 -4 -12 -2 -12 5 0 8 -4 8 -15 -1 -13 -11 -13 -14 2 -26 17 -13 17
-13 1 -14 -10 0 -18 -4 -18 -9 0 -5 -3 -17 -6 -26 -6 -16 4 -16 122 -10 71 4
131 8 133 10 10 10 -11 36 -24 31 -8 -3 -15 -1 -15 4 0 6 5 10 12 10 6 0 1 11
-12 25 -23 24 -50 33 -50 17z"/>
<path d="M4762 2838 c-8 -10 -2 -14 26 -15 35 -2 36 -2 18 12 -24 18 -31 19
-44 3z"/>
<path d="M4343 2820 c-32 -4 -40 -8 -34 -18 6 -10 20 -11 56 -5 36 6 45 11 34
18 -8 6 -33 8 -56 5z"/>
<path d="M4781 2804 c-56 -15 -76 -24 -50 -24 33 1 162 38 134 38 -16 1 -55
-6 -84 -14z"/>
<path d="M4688 2783 c7 -3 16 -2 19 1 4 3 -2 6 -13 5 -11 0 -14 -3 -6 -6z"/>
<path d="M383 2340 c4 -18 7 -36 7 -41 0 -20 29 -7 33 14 l4 22 8 -22 c4 -13
11 -23 16 -23 10 0 29 43 29 66 0 24 -20 5 -21 -19 l0 -22 -11 23 c-6 12 -14
22 -18 22 -4 0 -12 -10 -18 -22 l-11 -23 0 22 c-1 12 -6 25 -13 29 -8 5 -9 -2
-5 -26z"/>
<path d="M499 2365 c-10 -20 -10 -75 0 -75 6 0 11 9 11 20 0 11 7 20 15 20 8
0 15 -9 15 -20 0 -11 5 -20 10 -20 12 0 12 2 0 34 -5 14 -16 26 -24 26 -8 0
-16 5 -18 12 -3 7 -7 8 -9 3z"/>
<path d="M575 2324 c4 -16 7 -38 7 -48 -1 -26 13 -10 32 37 16 40 6 52 -12 15
-8 -18 -11 -19 -11 -6 -1 9 -6 20 -12 24 -9 5 -10 -1 -4 -22z"/>
<path d="M665 2325 c8 -38 11 -41 30 -25 10 8 15 9 15 1 0 -6 5 -11 10 -11 12
0 33 50 25 58 -2 3 -9 -6 -13 -19 l-9 -24 -7 23 c-9 26 -26 30 -26 5 0 -15 -2
-14 -16 3 -15 18 -15 18 -9 -11z"/>
<path d="M767 2343 c-4 -3 -7 -17 -7 -30 0 -18 6 -23 24 -23 15 0 26 7 29 19
7 29 -26 54 -46 34z m28 -13 c3 -5 1 -10 -4 -10 -6 0 -11 5 -11 10 0 6 2 10 4
10 3 0 8 -4 11 -10z m2 -26 c-3 -3 -12 -4 -19 -1 -8 3 -5 6 6 6 11 1 17 -2 13
-5z"/>
<path d="M854 2335 c-10 -25 4 -45 31 -45 21 0 25 5 25 30 0 25 -4 30 -25 30
-14 0 -28 -7 -31 -15z m44 -17 c-6 -18 -28 -21 -28 -4 0 9 7 16 16 16 9 0 14
-5 12 -12z"/>
<path d="M930 2320 c0 -16 5 -30 10 -30 6 0 10 8 10 18 0 10 5 23 12 30 9 9 7
12 -10 12 -18 0 -22 -6 -22 -30z"/>
<path d="M981 2337 c-17 -21 -3 -47 26 -47 21 0 24 4 21 27 -3 31 -29 41 -47
20z m29 -7 c0 -5 -5 -10 -11 -10 -5 0 -7 5 -4 10 3 6 8 10 11 10 2 0 4 -4 4
-10z m7 -26 c-3 -3 -12 -4 -19 -1 -8 3 -5 6 6 6 11 1 17 -2 13 -5z"/>
<path d="M4769 2273 c-5 -14 -8 -30 -6 -36 1 -5 8 7 14 27 13 42 7 49 -8 9z"/>
<path d="M4830 2260 c-13 -8 -12 -10 3 -10 9 0 17 5 17 10 0 12 -1 12 -20 0z"/>
<path d="M380 2179 c0 -38 1 -40 28 -37 35 4 45 46 13 55 -12 3 -21 9 -21 14
0 5 -4 9 -10 9 -5 0 -10 -18 -10 -41z m45 -7 c0 -18 -20 -15 -23 4 -3 10 1 15
10 12 7 -3 13 -10 13 -16z"/>
<path d="M588 2209 c-7 -21 4 -69 16 -69 14 0 13 57 -1 71 -8 8 -12 7 -15 -2z"/>
<path d="M3552 2198 c-19 -19 -14 -38 11 -38 13 0 32 -7 43 -15 27 -20 34 -19
34 8 0 44 -59 74 -88 45z"/>
<path d="M4807 2180 c-18 -30 -54 -43 -44 -16 7 18 -22 14 -34 -5 -8 -12 -10
-12 -19 1 -8 12 -10 10 -10 -10 -1 -55 -17 -55 -45 0 -21 42 -29 50 -36 38 -5
-9 -4 -30 1 -49 6 -19 8 -47 4 -62 l-6 -28 -33 21 c-34 21 -71 26 -93 11 -12
-7 -11 -14 2 -39 8 -17 21 -32 28 -35 7 -2 -4 -11 -24 -20 -31 -13 -58 -41
-58 -61 0 -3 27 -6 59 -6 33 0 72 -5 88 -11 26 -10 27 -12 8 -19 -39 -15 -49
-36 -34 -72 8 -18 13 -36 11 -40 -5 -18 18 -6 36 17 18 23 21 24 26 8 3 -10
22 -35 41 -56 36 -39 47 -74 20 -63 -8 3 -18 -2 -23 -11 -8 -14 -12 -14 -35 2
-23 15 -28 15 -33 2 -3 -8 2 -31 10 -52 19 -46 19 -45 1 -45 -21 0 -9 -23 26
-49 23 -17 33 -19 49 -11 18 9 20 8 20 -15 0 -14 -4 -25 -10 -25 -5 0 -10 -9
-10 -19 0 -15 -8 -21 -32 -24 -18 -2 10 -5 62 -6 78 -2 89 -4 63 -12 -31 -9
-46 -29 -22 -29 6 0 8 -7 5 -16 -4 -12 -1 -14 14 -9 14 5 20 2 20 -10 0 -9 -3
-14 -7 -12 -5 3 -8 -9 -8 -26 1 -21 5 -31 14 -29 7 1 11 -3 9 -10 -3 -7 -12
-14 -21 -16 -12 -3 -17 4 -17 21 0 19 -16 37 -33 37 -1 0 -3 -61 -5 -135 l-3
-135 50 0 51 0 0 43 c0 23 5 71 11 106 7 47 7 66 -1 71 -8 5 -7 9 4 13 9 4 16
14 16 23 0 9 7 22 16 28 12 9 13 17 5 40 -6 15 -18 35 -27 43 -25 25 -87 54
-106 49 -15 -3 -18 3 -18 48 0 29 -5 57 -12 64 -9 9 -9 12 0 12 7 0 12 12 12
26 0 14 -4 23 -10 19 -5 -3 -10 -1 -10 4 0 6 5 11 10 11 6 0 10 14 10 30 0 29
37 100 52 100 19 0 30 -47 25 -107 -7 -67 -4 -69 36 -35 16 14 17 13 17 -11 0
-31 11 -34 34 -11 37 36 -1 162 -56 186 -34 15 -35 21 -5 36 46 24 71 19 89
-17 14 -28 19 -31 24 -18 9 24 -22 67 -57 80 -16 6 -29 15 -29 19 0 15 44 48
64 48 27 0 7 20 -23 23 -23 1 -28 12 -11 22 6 4 17 2 24 -4 7 -6 21 -9 29 -5
17 6 13 29 -12 57 -14 17 -16 17 -24 -5 -6 -17 -10 -19 -17 -9 -4 8 -15 11
-24 8 -14 -6 -15 -3 -5 16 6 12 24 34 41 49 18 16 27 32 22 39 -4 8 -3 9 4 5
13 -8 17 6 5 17 -9 9 -43 -22 -43 -40 0 -7 -4 -13 -10 -13 -15 0 -71 -82 -66
-96 3 -7 -2 -15 -10 -18 -17 -7 -17 -8 0 41 14 39 32 173 24 173 -2 0 -12 -13
-21 -30z m-197 -335 c0 -8 -7 -15 -15 -15 -16 0 -20 12 -8 23 11 12 23 8 23
-8z m210 -525 c0 -5 -4 -10 -10 -10 -5 0 -10 5 -10 10 0 6 5 10 10 10 6 0 10
-4 10 -10z"/>
<path d="M457 2186 c-9 -24 3 -46 24 -46 10 0 19 4 19 10 0 5 -7 7 -15 4 -8
-4 -15 -1 -15 5 0 6 9 11 21 11 26 0 20 24 -8 28 -11 2 -23 -4 -26 -12z"/>
<path d="M526 2193 c-4 -4 3 -16 16 -26 l23 -18 -24 6 c-16 5 -21 4 -17 -4 4
-6 16 -11 26 -11 14 0 18 7 18 30 -1 29 -23 41 -42 23z"/>
<path d="M662 2170 c0 -19 2 -27 5 -17 2 9 2 25 0 35 -3 9 -5 1 -5 -18z"/>
<path d="M691 2168 c1 -29 2 -30 8 -9 9 34 31 39 31 7 0 -14 5 -26 11 -26 6 0
9 12 7 28 -2 21 -9 28 -30 30 -26 3 -28 1 -27 -30z"/>
<path d="M797 2194 c-10 -11 -9 -42 3 -49 20 -12 51 6 48 28 -3 22 -36 35 -51
21z m33 -18 c0 -8 -4 -17 -9 -21 -12 -7 -24 12 -16 25 9 15 25 12 25 -4z"/>
<path d="M862 2173 c2 -22 9 -29 31 -31 24 -3 27 0 27 27 0 17 -4 31 -10 31
-5 0 -10 -11 -10 -25 0 -14 -4 -25 -10 -25 -5 0 -10 11 -10 25 0 14 -5 25 -11
25 -6 0 -9 -12 -7 -27z"/>
<path d="M939 2193 c0 -5 -2 -16 -4 -25 -2 -10 1 -20 6 -24 5 -3 9 3 9 13 0
11 5 24 12 31 9 9 8 12 -5 12 -9 0 -17 -3 -18 -7z"/>
<path d="M1890 2125 c-11 -13 -10 -14 4 -9 9 3 16 10 16 15 0 13 -6 11 -20 -6z"/>
<path d="M1953 2133 c-14 -5 -18 -23 -5 -23 5 0 17 7 28 15 14 11 15 14 4 14
-8 0 -21 -3 -27 -6z"/>
<path d="M2006 2131 c-11 -17 -80 -44 -115 -44 -28 -1 -35 3 -33 16 2 9 -2 17
-7 17 -15 0 -24 -62 -13 -91 15 -39 63 -90 99 -105 56 -24 97 -18 150 22 52
40 92 83 93 100 0 15 -51 58 -73 61 -10 2 -25 10 -33 18 -17 16 -60 20 -68 6z
m-113 -63 c3 -10 7 -10 19 -1 17 15 28 8 28 -18 0 -24 -24 -30 -50 -12 -21 15
-21 14 -8 -6 7 -11 15 -21 19 -21 3 0 6 -7 6 -15 0 -10 -4 -12 -13 -4 -8 7
-14 6 -18 -3 -3 -7 -4 -3 -2 10 2 12 0 22 -5 22 -10 0 -12 43 -2 53 10 11 21
8 26 -5z"/>
<path d="M3477 2107 c-4 -11 -14 -14 -31 -11 -15 2 -26 0 -26 -5 0 -6 -7 -8
-15 -5 -8 4 -15 2 -15 -2 0 -5 -3 -18 -6 -29 -5 -18 -1 -20 33 -18 47 4 79
-20 85 -62 3 -16 3 -24 1 -17 -3 7 -9 9 -15 6 -7 -4 -8 -2 -4 5 4 6 1 18 -8
26 -9 10 -16 11 -18 4 -2 -7 -24 -19 -48 -28 l-45 -17 0 -52 1 -52 -18 29
c-20 31 -26 74 -14 106 7 19 7 19 -7 3 -8 -10 -18 -14 -22 -10 -5 4 -5 -1 -2
-10 4 -11 2 -15 -7 -12 -7 3 -21 -7 -31 -22 -13 -20 -15 -29 -6 -32 8 -3 9 -8
2 -16 -6 -7 -5 -17 3 -28 10 -14 39 -17 205 -20 l193 -4 14 29 c15 28 10 72
-7 62 -5 -4 -9 -1 -9 4 0 6 -5 11 -11 11 -6 0 -26 12 -45 26 l-34 26 -10 -28
c-8 -20 -14 -24 -22 -16 -17 17 9 62 36 63 12 1 28 2 36 3 8 0 21 -5 29 -12 7
-7 16 -10 19 -7 4 3 0 10 -7 15 -8 4 -11 15 -8 24 3 8 2 18 -4 22 -6 3 -8 12
-5 20 5 13 -6 19 -27 15 -4 -1 -10 5 -13 12 -3 8 -16 12 -34 9 -28 -4 -29 -7
-33 -61 l-3 -56 -2 58 c-1 31 -6 57 -12 57 -5 0 -10 -6 -11 -12 0 -7 -4 -4 -8
6 -7 17 -8 17 -14 3z m20 -49 c-3 -8 -6 -5 -6 6 -1 11 2 17 5 13 3 -3 4 -12 1
-19z m120 0 c-3 -8 -6 -5 -6 6 -1 11 2 17 5 13 3 -3 4 -12 1 -19z m-207 2 c0
-5 -5 -10 -11 -10 -5 0 -7 5 -4 10 3 6 8 10 11 10 2 0 4 -4 4 -10z m60 6 c0
-3 -4 -8 -10 -11 -5 -3 -10 -1 -10 4 0 6 5 11 10 11 6 0 10 -2 10 -4z"/>
<path d="M387 2062 c6 -4 13 -23 16 -42 l4 -35 1 37 c1 20 8 39 15 41 6 3 -1
6 -18 6 -17 0 -25 -3 -18 -7z"/>
<path d="M452 2048 c-25 -25 0 -64 32 -52 21 8 21 50 0 58 -20 8 -18 8 -32 -6z
m36 -26 c2 -7 -3 -12 -12 -12 -9 0 -16 7 -16 16 0 17 22 14 28 -4z"/>
<path d="M516 2033 c9 -38 22 -50 30 -29 6 15 7 15 19 -1 13 -17 14 -16 24 10
15 39 13 57 -3 28 l-13 -23 -7 23 -6 24 -15 -25 c-10 -18 -14 -20 -15 -8 0 9
-5 20 -10 23 -7 4 -8 -3 -4 -22z"/>
<path d="M616 2052 c-10 -9 -7 -52 4 -52 6 0 10 9 10 20 0 11 5 20 10 20 6 0
10 -9 10 -19 0 -11 5 -23 10 -26 6 -4 10 7 10 24 0 17 -3 31 -7 32 -5 0 -16 2
-25 4 -9 2 -19 0 -22 -3z"/>
<path d="M1846 1943 c3 -21 9 -42 13 -46 13 -13 74 -24 100 -17 l24 5 -28 13
c-23 11 -30 11 -36 0 -5 -8 -9 -9 -9 -2 0 6 -15 28 -34 48 l-34 36 4 -37z"/>
<path d="M3680 1736 c0 -9 5 -16 10 -16 6 0 10 4 10 9 0 6 -4 13 -10 16 -5 3
-10 -1 -10 -9z"/>
<path d="M2490 1734 c0 -13 -75 -56 -83 -48 -3 3 -17 -2 -31 -11 -16 -11 -39
-16 -61 -13 -36 4 -47 -5 -19 -16 32 -12 70 -5 130 23 55 26 84 55 69 69 -3 3
-5 1 -5 -4z"/>
<path d="M1959 1703 c6 -13 16 -24 21 -24 6 -1 14 -2 19 -3 5 0 13 -4 17 -8 4
-5 14 -8 21 -8 8 0 21 -7 30 -15 8 -9 18 -13 21 -10 7 6 -32 43 -66 63 -19 10
-22 10 -22 -5 0 -14 -5 -12 -26 8 -26 24 -26 24 -15 2z"/>
<path d="M3556 1701 c-3 -5 1 -11 9 -15 8 -3 15 -1 15 4 0 13 -18 22 -24 11z"/>
<path d="M3620 1690 c20 -13 33 -13 25 0 -3 6 -14 10 -23 10 -15 0 -15 -2 -2
-10z"/>
<path d="M3670 1690 c19 -13 30 -13 30 0 0 6 -10 10 -22 10 -19 0 -20 -2 -8
-10z"/>
<path d="M2070 1681 c0 -12 45 -48 70 -56 15 -5 16 -11 9 -38 -5 -18 -15 -69
-24 -114 -9 -46 -18 -91 -22 -100 -4 -12 -3 -15 4 -8 6 6 22 64 36 129 26 118
41 152 55 130 5 -9 10 -8 19 2 10 10 9 16 -9 28 -23 17 -53 22 -44 8 2 -4 -4
-8 -14 -8 -10 0 -17 4 -14 7 5 9 -3 14 -38 23 -16 3 -28 2 -28 -3z"/>
<path d="M2216 1667 c3 -9 10 -17 16 -17 5 0 7 -9 3 -20 -6 -18 -3 -19 27 -13
44 8 45 10 12 25 -16 6 -37 19 -47 27 -16 13 -17 13 -11 -2z"/>
<path d="M3630 1660 c0 -12 28 -21 35 -11 2 5 -4 11 -15 14 -11 3 -20 2 -20
-3z"/>
<path d="M2429 1653 c-3 -17 3 -49 11 -58 11 -13 90 -293 90 -317 0 -10 5 -18
10 -18 13 0 13 -1 -6 67 -9 32 -20 78 -26 103 -5 25 -15 65 -23 90 -15 50 -29
121 -27 133 1 4 -5 7 -13 7 -8 0 -16 -3 -16 -7z"/>
<path d="M3550 1656 c0 -2 11 -6 25 -8 14 -3 25 -1 25 3 0 5 -11 9 -25 9 -14
0 -25 -2 -25 -4z"/>
<path d="M1971 1619 c-6 -18 -9 -34 -7 -36 2 -2 9 10 15 28 6 18 9 34 7 36 -2
2 -9 -10 -15 -28z"/>
<path d="M3558 1626 c-15 -9 -14 -12 10 -22 l27 -12 -37 -1 c-20 -1 -40 -5
-43 -11 -3 -6 1 -7 9 -4 12 5 16 0 16 -17 0 -19 -2 -21 -10 -9 -6 10 -10 11
-10 3 0 -7 -10 -13 -22 -14 -21 0 -21 -1 -4 -8 29 -11 2 -24 -34 -16 -19 4
-30 3 -30 -4 0 -14 -37 -14 -45 -1 -9 15 -25 12 -25 -5 0 -9 -9 -15 -25 -15
-16 0 -23 4 -19 13 3 8 -3 20 -13 28 -10 7 -15 10 -11 5 4 -5 0 -15 -8 -23
-13 -13 -11 -17 11 -35 31 -24 32 -46 6 -210 -31 -200 -31 -200 -18 -195 9 3
83 303 86 350 1 4 -8 7 -19 7 -14 0 -18 5 -13 17 4 11 8 12 11 5 2 -7 10 -12
18 -12 9 0 12 5 8 11 -4 7 -1 10 7 7 8 -3 13 -11 12 -17 -5 -18 15 -12 20 7 4
16 5 16 6 0 1 -12 9 -18 24 -18 23 0 24 -3 30 -107 4 -58 7 -137 7 -175 0 -40
4 -68 10 -68 17 0 19 17 22 185 l3 160 25 0 c24 0 26 -5 56 -150 40 -195 42
-205 55 -205 12 0 7 63 -17 215 -18 117 -18 145 1 145 8 0 15 9 15 20 0 13 10
24 25 30 23 9 25 14 25 80 0 40 -4 70 -10 70 -5 0 -10 -11 -10 -25 0 -22 -2
-24 -26 -14 -15 5 -29 7 -32 4 -3 -3 -2 -5 2 -5 4 0 1 -7 -8 -15 -21 -21 -22
-19 -18 19 4 37 -12 50 -40 32z m9 -78 c-3 -8 -6 -5 -6 6 -1 11 2 17 5 13 3
-3 4 -12 1 -19z"/>
<path d="M3630 1615 c7 -8 16 -15 21 -15 5 0 9 7 9 15 0 9 -9 15 -21 15 -18 0
-19 -2 -9 -15z"/>
<path d="M1913 1442 c-24 -69 -41 -127 -39 -129 5 -5 88 236 84 246 -2 5 -22
-48 -45 -117z"/>
<path d="M3428 1533 c6 -2 18 -2 25 0 6 3 1 5 -13 5 -14 0 -19 -2 -12 -5z"/>
<path d="M4600 1275 c0 -14 4 -25 9 -25 4 0 6 11 3 25 -2 14 -6 25 -8 25 -2 0
-4 -11 -4 -25z"/>
<path d="M4880 1285 c0 -8 2 -15 4 -15 2 0 6 7 10 15 3 8 1 15 -4 15 -6 0 -10
-7 -10 -15z"/>
<path d="M1846 1255 c-3 -8 -1 -15 4 -15 6 0 10 7 10 15 0 8 -2 15 -4 15 -2 0
-6 -7 -10 -15z"/>
<path d="M4610 1231 c0 -8 5 -52 12 -98 l12 -83 38 0 38 0 0 45 c0 43 -1 45
-28 45 -35 0 -52 16 -52 50 0 14 -5 32 -10 40 -8 13 -10 13 -10 1z m78 -168
c-10 -2 -26 -2 -35 0 -10 3 -2 5 17 5 19 0 27 -2 18 -5z"/>
<path d="M4879 1228 c-2 -6 -8 -46 -13 -83 -4 -25 -3 -34 3 -25 9 17 23 110
16 110 -3 0 -5 -1 -6 -2z"/>
<path d="M4688 1213 c7 -3 16 -2 19 1 4 3 -2 6 -13 5 -11 0 -14 -3 -6 -6z"/>
<path d="M4685 1170 c4 -6 11 -8 16 -5 14 9 11 15 -7 15 -8 0 -12 -5 -9 -10z"/>
<path d="M1971 778 c-1 -23 15 -31 39 -18 26 14 26 26 0 26 -11 0 -20 -7 -21
-16 0 -10 -3 -9 -9 5 -7 16 -9 17 -9 3z"/>
<path d="M2044 778 c-12 -19 25 -30 56 -18 3 1 8 2 13 1 4 0 7 5 7 12 0 8 4 7
11 -3 8 -12 10 -12 7 -1 -4 15 -86 23 -94 9z"/>
<path d="M2164 779 c-3 -6 -2 -15 3 -20 5 -5 9 -1 9 11 0 23 -2 24 -12 9z"/>
<path d="M2201 773 c0 -13 2 -14 6 -4 3 8 8 9 12 3 11 -17 51 -25 51 -9 0 21
-12 28 -26 16 -8 -7 -14 -7 -19 1 -10 16 -25 12 -24 -7z"/>
<path d="M3240 783 c1 -18 17 -28 45 -28 17 1 33 -3 38 -9 5 -7 12 -4 22 8 8
11 15 15 15 8 0 -11 40 -10 80 3 12 4 20 2 20 -5 0 -6 6 -10 13 -7 6 2 12 10
12 17 0 10 -14 13 -50 11 -49 -2 -61 -2 -120 0 -16 1 -39 -2 -49 -6 -14 -6
-17 -5 -12 3 4 7 2 12 -3 12 -6 0 -11 -3 -11 -7z m60 -13 c0 -5 -5 -10 -11
-10 -5 0 -7 5 -4 10 3 6 8 10 11 10 2 0 4 -4 4 -10z m40 0 c0 -5 -4 -10 -10
-10 -5 0 -10 5 -10 10 0 6 5 10 10 10 6 0 10 -4 10 -10z"/>
<path d="M3566 774 c-3 -8 -2 -13 3 -9 5 3 12 -1 14 -7 3 -7 6 -3 6 10 1 25
-14 30 -23 6z"/>
<path d="M3600 776 c0 -7 7 -13 15 -13 8 0 15 4 15 8 0 4 -7 9 -15 13 -9 3
-15 0 -15 -8z"/>
<path d="M4492 773 c2 -9 10 -18 18 -20 12 -4 13 -3 1 5 -7 5 -10 15 -7 21 4
6 2 11 -4 11 -6 0 -10 -8 -8 -17z"/>
<path d="M4544 778 c-3 -4 -2 -13 1 -18 7 -11 45 5 45 18 0 10 -40 10 -46 0z"/>
<path d="M4605 779 c-4 -5 -4 -13 -1 -16 3 -4 6 0 6 8 0 11 2 11 10 -1 6 -9
10 -10 10 -3 0 17 -17 25 -25 12z"/>
<path d="M4650 772 c0 -15 2 -15 10 -2 7 11 10 11 10 2 0 -7 5 -10 10 -7 16
10 11 21 -10 22 -13 1 -20 -4 -20 -15z"/>
<path d="M4704 778 c-14 -23 40 -33 57 -11 6 7 8 13 3 14 -5 0 -19 2 -32 3
-13 2 -25 -1 -28 -6z"/>
<path d="M4813 783 c-25 -5 -32 -30 -8 -30 8 0 15 4 15 9 0 5 4 7 8 4 5 -3 9
1 9 9 0 8 -1 14 -1 14 -1 -1 -11 -4 -23 -6z"/>
<path d="M4851 774 c0 -11 3 -14 6 -6 3 7 2 16 -1 19 -3 4 -6 -2 -5 -13z"/>
<path d="M2280 770 c0 -5 4 -10 9 -10 6 0 13 5 16 10 3 6 -1 10 -9 10 -9 0
-16 -4 -16 -10z"/>
<path d="M3510 770 c0 -5 9 -10 21 -10 11 0 17 5 14 10 -3 6 -13 10 -21 10 -8
0 -14 -4 -14 -10z"/>
<path d="M1993 692 c-13 -2 -23 -8 -23 -13 0 -13 54 -8 68 7 12 13 7 14 -45 6z"/>
<path d="M2061 683 c0 -12 2 -14 6 -4 5 11 7 11 15 0 8 -12 9 -12 6 0 -6 22
-28 25 -27 4z"/>
<path d="M2110 682 c0 -15 2 -15 10 -2 9 13 10 13 10 0 0 -12 2 -12 9 -1 6 9
11 10 15 2 9 -14 66 -11 66 4 0 5 -25 11 -55 12 -46 2 -55 0 -55 -15z"/>
<path d="M2236 693 c-3 -4 -6 -11 -6 -17 0 -6 5 -4 10 4 6 9 10 11 10 3 0 -7
7 -10 15 -7 8 4 15 9 15 13 0 9 -36 12 -44 4z"/>
<path d="M3243 686 c5 -15 47 -18 47 -3 0 7 -11 13 -25 13 -14 0 -24 -4 -22
-10z"/>
<path d="M3304 691 c-2 -2 -4 -9 -4 -15 0 -6 5 -4 10 4 8 12 10 12 10 1 0 -8
3 -11 7 -8 3 4 12 2 19 -3 8 -8 16 -6 27 5 17 16 32 21 23 6 -3 -5 10 -8 29
-8 19 1 35 5 35 10 0 4 5 5 10 2 6 -3 10 -2 10 3 0 13 -89 12 -114 0 -12 -7
-16 -7 -12 0 6 9 -41 12 -50 3z"/>
<path d="M3510 685 c0 -8 4 -15 10 -15 5 0 7 7 4 15 -4 8 -8 15 -10 15 -2 0
-4 -7 -4 -15z"/>
<path d="M3541 684 c0 -11 3 -14 6 -6 3 7 2 16 -1 19 -3 4 -6 -2 -5 -13z"/>
<path d="M3561 683 c0 -13 2 -14 6 -4 5 11 7 11 14 0 7 -11 9 -10 9 4 0 9 -7
17 -15 17 -8 0 -15 -8 -14 -17z"/>
<path d="M3600 681 c0 -14 1 -14 10 -1 5 8 10 10 10 5 0 -6 11 -12 25 -13 16
-1 25 3 25 12 0 10 -11 14 -35 13 -25 -1 -35 -6 -35 -16z"/>
<path d="M4496 685 c6 -15 44 -16 44 -2 0 7 5 4 11 -5 10 -18 37 -14 51 6 5 7
8 7 8 -2 0 -15 91 -13 103 3 4 6 11 4 18 -5 9 -13 10 -13 6 0 -3 12 -26 15
-124 15 -82 1 -119 -3 -117 -10z"/>
<path d="M4761 684 c0 -11 3 -14 6 -6 3 7 2 16 -1 19 -3 4 -6 -2 -5 -13z"/>
<path d="M4786 692 c-3 -3 -6 -10 -6 -16 0 -6 5 -4 10 4 8 12 10 12 10 1 0 -8
3 -11 7 -8 3 4 11 3 17 -3 8 -6 12 -3 12 8 0 16 -38 27 -50 14z"/>
<path d="M4861 684 c0 -11 3 -14 6 -6 3 7 2 16 -1 19 -3 4 -6 -2 -5 -13z"/>
<path d="M1990 500 c-12 -7 -12 -12 4 -29 17 -18 17 -19 -1 -23 -15 -3 -16 -4
-2 -10 9 -3 22 -2 30 3 11 7 12 12 1 29 -8 13 -8 20 -1 20 5 0 7 5 4 10 -8 12
-16 12 -35 0z"/>
<path d="M2050 500 c0 -6 5 -8 12 -4 7 5 9 2 5 -8 -3 -9 0 -21 6 -28 9 -10 8
-12 -5 -7 -10 4 -18 2 -18 -3 0 -6 9 -10 20 -10 16 0 19 6 17 32 -2 22 -8 34
-20 36 -9 2 -17 -2 -17 -8z"/>
<path d="M2106 492 c-9 -28 3 -52 26 -52 16 0 18 6 15 32 -4 37 -32 50 -41 20z
m34 4 c0 -3 -4 -8 -10 -11 -5 -3 -10 -1 -10 4 0 6 5 11 10 11 6 0 10 -2 10 -4z
m0 -36 c0 -5 -4 -10 -10 -10 -5 0 -10 5 -10 10 0 6 5 10 10 10 6 0 10 -4 10
-10z"/>
<path d="M3231 496 c-10 -11 -7 -17 11 -30 20 -15 21 -16 3 -16 -15 0 -16 -3
-7 -12 20 -20 40 7 24 32 -8 13 -9 20 -1 20 5 0 7 5 4 10 -9 14 -20 12 -34 -4z"/>
<path d="M3294 498 c-5 -8 -2 -9 9 -5 21 8 22 -2 1 -31 -14 -20 -14 -22 3 -22
13 0 19 9 20 35 3 35 -17 49 -33 23z"/>
<path d="M3345 491 c-8 -26 4 -51 26 -51 15 0 19 7 19 35 0 28 -4 35 -19 35
-11 0 -22 -8 -26 -19z m35 -22 c0 -10 -4 -19 -10 -19 -5 0 -10 12 -10 26 0 14
4 23 10 19 6 -3 10 -15 10 -26z"/>
<path d="M4502 498 c-9 -9 -8 -16 5 -30 12 -14 13 -18 3 -18 -11 0 -11 -3 -2
-12 20 -20 40 7 24 32 -8 13 -9 20 -1 20 5 0 7 5 4 10 -8 13 -18 13 -33 -2z"/>
<path d="M4562 475 c-1 -19 3 -35 8 -35 6 0 10 16 10 35 0 19 -4 35 -8 35 -5
0 -9 -16 -10 -35z"/>
<path d="M4594 496 c-10 -27 1 -51 24 -54 21 -3 23 0 20 30 -3 35 -33 52 -44
24z m36 -27 c0 -10 -4 -19 -10 -19 -5 0 -10 12 -10 26 0 14 4 23 10 19 6 -3
10 -15 10 -26z"/>
</g>
</svg>
