<svg xmlns="http://www.w3.org/2000/svg" xmlns:xlink="http://www.w3.org/1999/xlink" width="500" zoomAndPan="magnify" viewBox="0 0 375 374.999991" height="500" preserveAspectRatio="xMidYMid meet" version="1.0"><defs><clipPath id="aad2de2d96"><path d="M 122 128 L 189 128 L 189 242.195312 L 122 242.195312 Z M 122 128 " clip-rule="nonzero"/></clipPath><clipPath id="19e75f6688"><path d="M 122 92.195312 L 253 92.195312 L 253 169 L 122 169 Z M 122 92.195312 " clip-rule="nonzero"/></clipPath><clipPath id="ebafb781f9"><path d="M 186 128 L 253 128 L 253 242.195312 L 186 242.195312 Z M 186 128 " clip-rule="nonzero"/></clipPath></defs><rect x="-37.5" width="450" fill="#ffffff" y="-37.499999" height="449.999989" fill-opacity="1"/><rect x="-37.5" width="450" fill="#0a0601" y="-37.499999" height="449.999989" fill-opacity="1"/><g clip-path="url(#aad2de2d96)"><path fill="#cbacf9" d="M 187.5 242.195312 L 122.515625 204.695312 L 122.515625 129.695312 L 123.914062 128.996094 L 188.898438 166.496094 L 188.898438 241.496094 Z M 183.773438 169.058594 L 128.804688 137.382812 L 128.804688 200.734375 L 183.773438 232.414062 Z M 175.386719 181.636719 L 170.03125 214.476562 L 163.042969 210.519531 L 155.125 182.800781 L 147.203125 201.433594 L 140.449219 197.472656 L 135.09375 158.578125 L 131.597656 156.480469 L 131.597656 149.027344 L 149.765625 159.507812 L 149.765625 166.960938 L 142.78125 163.003906 L 145.574219 185.128906 L 153.027344 168.59375 L 157.6875 171.386719 L 164.90625 196.308594 L 167.703125 177.675781 L 160.714844 173.714844 L 160.714844 166.261719 L 178.882812 176.746094 L 178.882812 184.199219 Z M 175.386719 181.636719 " fill-opacity="1" fill-rule="nonzero"/></g><g clip-path="url(#19e75f6688)"><path fill="#cbacf9" d="M 252.484375 131.324219 L 187.5 168.824219 L 122.515625 131.558594 L 122.515625 129.695312 L 187.5 92.195312 L 252.484375 129.695312 Z M 187.5 99.183594 L 132.53125 130.859375 L 187.5 162.535156 L 242.46875 130.859375 Z M 224.066406 136.449219 L 220.574219 134.351562 L 184.238281 149.261719 L 177.484375 145.300781 L 189.828125 129.230469 L 161.878906 136.214844 L 155.125 132.257812 L 180.746094 111.292969 L 177.019531 109.199219 L 183.539062 105.472656 L 201.707031 115.953125 L 195.1875 119.679688 L 188.199219 115.488281 L 173.523438 127.367188 L 198.679688 121.308594 L 203.105469 123.871094 L 192.390625 138.546875 L 213.121094 129.929688 L 206.132812 125.734375 L 212.421875 122.007812 L 230.589844 132.488281 Z M 224.066406 136.449219 " fill-opacity="1" fill-rule="nonzero"/></g><g clip-path="url(#ebafb781f9)"><path fill="#cbacf9" d="M 187.5 242.195312 L 186.101562 241.496094 L 186.101562 166.261719 L 250.855469 128.761719 L 252.484375 129.695312 L 252.484375 204.695312 Z M 246.195312 137.148438 L 191.226562 168.824219 L 191.226562 232.179688 L 246.195312 200.503906 Z M 238.742188 159.277344 L 233.386719 198.171875 L 226.628906 202.132812 L 218.710938 183.5 L 210.792969 211.214844 L 204.039062 215.175781 L 198.679688 182.335938 L 195.1875 184.429688 L 195.1875 176.976562 L 213.355469 166.496094 L 213.355469 173.949219 L 206.367188 178.140625 L 209.160156 196.777344 L 216.382812 171.851562 L 221.039062 169.292969 L 228.492188 185.828125 L 231.289062 163.703125 L 224.300781 167.894531 L 224.300781 160.441406 L 242.46875 149.960938 L 242.46875 157.414062 Z M 238.742188 159.277344 " fill-opacity="1" fill-rule="nonzero"/></g></svg>